<?xml version="1.0" standalone="no"?>
<!DOCTYPE svg PUBLIC "-//W3C//DTD SVG 20010904//EN"
 "http://www.w3.org/TR/2001/REC-SVG-20010904/DTD/svg10.dtd">
<svg version="1.0" xmlns="http://www.w3.org/2000/svg"
 width="240.000000pt" height="240.000000pt" viewBox="0 0 240.000000 240.000000"
 preserveAspectRatio="xMidYMid meet">
<metadata>
Created by potrace 1.14, written by Peter Selinger 2001-2017
</metadata>
<g transform="translate(0.000000,240.000000) scale(0.100000,-0.100000)"
fill="#000000" stroke="none">
<path d="M1665 2281 c-120 -34 -156 -62 -430 -334 l-260 -258 80 6 80 7 210
207 c116 114 232 219 258 235 26 15 80 34 120 42 274 57 520 -189 463 -463 -8
-40 -27 -94 -42 -120 -16 -29 -142 -163 -318 -338 -316 -316 -341 -335 -463
-354 -171 -27 -346 64 -419 216 -15 32 -29 60 -31 62 -6 9 -73 -63 -73 -78 0
-31 59 -117 117 -172 158 -151 389 -181 584 -77 42 22 134 106 361 331 327
324 348 351 382 483 95 370 -253 710 -619 605z"/>
<path d="M965 1581 c-124 -35 -153 -58 -471 -376 -240 -240 -306 -312 -331
-360 -109 -210 -73 -446 91 -603 128 -123 301 -170 470 -126 116 30 156 60
436 335 l265 260 -80 -6 -80 -7 -210 -207 c-116 -114 -232 -219 -258 -235 -26
-15 -80 -34 -120 -42 -274 -57 -520 189 -463 463 8 40 27 94 42 120 16 29 142
163 318 338 316 316 341 335 464 354 170 27 345 -64 418 -216 15 -32 29 -60
31 -62 6 -9 73 63 73 78 0 57 -135 208 -226 254 -112 57 -253 72 -369 38z"/>
</g>
</svg>
